<mxfile host="app.diagrams.net" modified="2023-02-11T07:16:02.173Z" agent="5.0 (X11; Linux x86_64) AppleWebKit/537.36 (KHTML, like Gecko) Chrome/109.0.0.0 Safari/537.36" etag="1IvmCBwsa1TT3bF20evJ" version="20.8.20" type="github">
  <diagram name="Страница 1" id="Y4q4V2JyoeAnRiIHV64o">
    <mxGraphModel dx="1050" dy="531" grid="1" gridSize="10" guides="1" tooltips="1" connect="1" arrows="1" fold="1" page="1" pageScale="1" pageWidth="827" pageHeight="1169" math="0" shadow="0">
      <root>
        <mxCell id="0" />
        <mxCell id="1" parent="0" />
        <mxCell id="BKu4UP8uy58tQrYpFL6M-6" value="" style="ellipse;whiteSpace=wrap;html=1;aspect=fixed;dashed=1;" vertex="1" parent="1">
          <mxGeometry x="230" y="220" width="580" height="580" as="geometry" />
        </mxCell>
        <mxCell id="BKu4UP8uy58tQrYpFL6M-7" value="" style="ellipse;whiteSpace=wrap;html=1;aspect=fixed;dashed=1;" vertex="1" parent="1">
          <mxGeometry x="305.63" y="295.63" width="428.75" height="428.75" as="geometry" />
        </mxCell>
        <mxCell id="BKu4UP8uy58tQrYpFL6M-2" value="API v1" style="rounded=0;whiteSpace=wrap;html=1;rotation=-15;" vertex="1" parent="1">
          <mxGeometry x="424.5" y="240" width="90" height="40" as="geometry" />
        </mxCell>
        <mxCell id="BKu4UP8uy58tQrYpFL6M-3" value="API v2" style="rounded=0;whiteSpace=wrap;html=1;rotation=15;" vertex="1" parent="1">
          <mxGeometry x="540" y="240" width="90" height="40" as="geometry" />
        </mxCell>
        <mxCell id="BKu4UP8uy58tQrYpFL6M-4" value="API v1 &lt;br&gt;mappers" style="rounded=0;whiteSpace=wrap;html=1;rotation=-40;" vertex="1" parent="1">
          <mxGeometry x="334.5" y="290" width="90" height="40" as="geometry" />
        </mxCell>
        <mxCell id="BKu4UP8uy58tQrYpFL6M-5" value="API v2 &lt;br&gt;mappers" style="rounded=0;whiteSpace=wrap;html=1;rotation=40;" vertex="1" parent="1">
          <mxGeometry x="630" y="290" width="90" height="40" as="geometry" />
        </mxCell>
        <mxCell id="BKu4UP8uy58tQrYpFL6M-8" value="DB DTO v1" style="rounded=0;whiteSpace=wrap;html=1;rotation=31;" vertex="1" parent="1">
          <mxGeometry x="334.5" y="710" width="90" height="40" as="geometry" />
        </mxCell>
        <mxCell id="BKu4UP8uy58tQrYpFL6M-9" value="DB DTO v1 &lt;br&gt;mappers" style="rounded=0;whiteSpace=wrap;html=1;rotation=55;" vertex="1" parent="1">
          <mxGeometry x="260" y="630" width="90" height="40" as="geometry" />
        </mxCell>
        <mxCell id="BKu4UP8uy58tQrYpFL6M-10" value="Log DTO v1 &lt;br&gt;mappers" style="rounded=0;whiteSpace=wrap;html=1;rotation=-70;" vertex="1" parent="1">
          <mxGeometry x="720" y="565" width="90" height="40" as="geometry" />
        </mxCell>
        <mxCell id="BKu4UP8uy58tQrYpFL6M-11" value="Log DTO v1" style="rounded=0;whiteSpace=wrap;html=1;rotation=-50;" vertex="1" parent="1">
          <mxGeometry x="670" y="657.5" width="90" height="40" as="geometry" />
        </mxCell>
        <mxCell id="BKu4UP8uy58tQrYpFL6M-12" value="" style="ellipse;whiteSpace=wrap;html=1;aspect=fixed;dashed=1;" vertex="1" parent="1">
          <mxGeometry x="377.81" y="367.82" width="284.37" height="284.37" as="geometry" />
        </mxCell>
        <mxCell id="BKu4UP8uy58tQrYpFL6M-13" value="Spring" style="rounded=0;whiteSpace=wrap;html=1;rotation=0;" vertex="1" parent="1">
          <mxGeometry x="484" y="310" width="90" height="40" as="geometry" />
        </mxCell>
        <mxCell id="BKu4UP8uy58tQrYpFL6M-14" value="Ktor" style="rounded=0;whiteSpace=wrap;html=1;rotation=35;" vertex="1" parent="1">
          <mxGeometry x="584" y="346" width="90" height="40" as="geometry" />
        </mxCell>
        <mxCell id="BKu4UP8uy58tQrYpFL6M-15" value="Servereless" style="rounded=0;whiteSpace=wrap;html=1;rotation=65;" vertex="1" parent="1">
          <mxGeometry x="647.38" y="429" width="90" height="40" as="geometry" />
        </mxCell>
        <mxCell id="BKu4UP8uy58tQrYpFL6M-16" value="RabbitMQ" style="rounded=0;whiteSpace=wrap;html=1;rotation=-63;" vertex="1" parent="1">
          <mxGeometry x="310" y="414" width="90" height="40" as="geometry" />
        </mxCell>
        <mxCell id="BKu4UP8uy58tQrYpFL6M-17" value="Kafka" style="rounded=0;whiteSpace=wrap;html=1;rotation=-30;" vertex="1" parent="1">
          <mxGeometry x="380" y="336" width="90" height="40" as="geometry" />
        </mxCell>
        <mxCell id="BKu4UP8uy58tQrYpFL6M-18" value="Exposed Postgres" style="rounded=0;whiteSpace=wrap;html=1;rotation=70;" vertex="1" parent="1">
          <mxGeometry x="306" y="546" width="90" height="40" as="geometry" />
        </mxCell>
        <mxCell id="BKu4UP8uy58tQrYpFL6M-19" value="Cassandra" style="rounded=0;whiteSpace=wrap;html=1;rotation=40;" vertex="1" parent="1">
          <mxGeometry x="360" y="630" width="90" height="40" as="geometry" />
        </mxCell>
        <mxCell id="BKu4UP8uy58tQrYpFL6M-20" value="ArcadeDB" style="rounded=0;whiteSpace=wrap;html=1;rotation=10;" vertex="1" parent="1">
          <mxGeometry x="450" y="670" width="90" height="40" as="geometry" />
        </mxCell>
        <mxCell id="BKu4UP8uy58tQrYpFL6M-21" value="SLF4J" style="rounded=0;whiteSpace=wrap;html=1;rotation=-60;" vertex="1" parent="1">
          <mxGeometry x="636" y="566" width="90" height="40" as="geometry" />
        </mxCell>
        <mxCell id="BKu4UP8uy58tQrYpFL6M-23" value="Internal DTO" style="rounded=0;whiteSpace=wrap;html=1;" vertex="1" parent="1">
          <mxGeometry x="190" y="230" width="120" height="60" as="geometry" />
        </mxCell>
        <mxCell id="BKu4UP8uy58tQrYpFL6M-24" value="Business Logics" style="rounded=0;whiteSpace=wrap;html=1;" vertex="1" parent="1">
          <mxGeometry x="459.99" y="480" width="120" height="60" as="geometry" />
        </mxCell>
      </root>
    </mxGraphModel>
  </diagram>
</mxfile>
